<svg width="261" height="70" viewBox="0 0 261 70" fill="none" xmlns="http://www.w3.org/2000/svg">
<path d="M227.475 17H175.541C173.585 17 172 18.4126 172 20.1551V66.4296C172 68.1721 173.585 69.5847 175.541 69.5847H227.475C229.43 69.5847 231.016 68.1721 231.016 66.4296V20.1551C231.016 18.4126 229.43 17 227.475 17Z" fill="#F5F5F5"/>
<path d="M204.901 43.5118L208.975 43.1703C210.172 43.1703 210.771 43.4578 210.771 44.033C210.771 44.5962 210.381 45.0874 209.6 45.5069C207.691 46.5253 205.647 47.2143 203.468 47.5738C201.29 47.9332 199.165 48.113 197.094 48.113C195.037 48.113 193.564 48.077 192.677 48.0052C191.803 47.9452 190.929 47.8134 190.055 47.6097C189.194 47.406 188.488 47.1304 187.937 46.7829C186.74 46.0161 186.141 44.8358 186.141 43.2421C186.141 40.4743 188.017 36.9935 191.769 32.7997C194.606 29.6364 197.014 27.7912 198.99 27.264C200.026 26.9883 201.229 26.8506 202.601 26.8506C203.986 26.8506 204.679 27.3178 204.679 28.2525C204.679 28.564 204.578 28.9354 204.376 29.3668C203.61 30.7687 202.937 32.4283 202.359 34.3454C201.781 36.2506 201.492 37.964 201.492 39.4858C201.492 42.1698 202.628 43.5118 204.901 43.5118ZM184.427 28.7198C183.741 28.7198 183.398 28.3664 183.398 27.6594C183.398 26.8805 183.66 25.8141 184.185 24.4602C185.207 21.8839 186.303 20.4521 187.473 20.1645C187.795 20.0567 188.77 20.0027 190.397 20.0027L204.033 20.2903C204.706 20.2903 206.662 20.1106 209.903 19.7511C213.157 19.3916 214.865 19.2119 215.027 19.2119C216.761 19.2119 217.629 19.7391 217.629 20.7936C217.629 21.2609 217.44 22.0037 217.064 23.0223C216.701 24.0288 216.217 24.9814 215.612 25.8801C215.006 26.7786 214.448 27.228 213.937 27.228C213.628 27.228 212.929 27.0063 211.84 26.563C208.545 25.221 205.889 24.55 203.872 24.55C201.855 24.55 199.522 24.7237 196.872 25.0712C194.223 25.4187 192.253 25.8321 190.962 26.3113C189.671 26.7786 188.542 27.21 187.573 27.6055C185.771 28.3484 184.723 28.7198 184.427 28.7198Z" fill="#6230A5"/>
<path d="M212.977 67.1486C208.499 67.1486 206.26 65.8245 206.26 63.1764C206.26 61.6667 207.329 58.6532 209.468 54.1359C211.606 49.6067 212.675 46.4674 212.675 44.718C212.675 43.7354 212.265 43.0404 211.444 42.633C210.637 42.2137 209.461 42.004 207.914 42.004C206.381 42.004 204.821 42.1238 203.235 42.3634C201.648 42.6031 200.626 42.7229 200.168 42.7229C199.725 42.7229 199.503 42.5432 199.503 42.1837C199.503 41.7164 200.451 41.0993 202.347 40.3324C205.991 38.8467 210.005 38.1038 214.389 38.1038C217.859 38.1038 220.454 38.6609 222.175 39.7753C223.91 40.8896 224.777 42.6989 224.777 45.2032C224.777 46.689 224.482 48.5522 223.89 50.7929C223.298 53.0216 222.707 55.1185 222.115 57.0836C221.537 59.0487 221.248 60.3966 221.248 61.1275C221.248 61.8585 221.402 62.3677 221.711 62.6552C222.101 63.0147 222.855 63.1944 223.971 63.1944C224.656 63.1944 225.04 63.2604 225.12 63.3922C225.215 63.5239 225.262 63.6618 225.262 63.8056C225.262 64.3568 224.979 64.806 224.414 65.1535C222.276 66.4836 218.464 67.1486 212.977 67.1486ZM201.238 54.1359L206.401 54.0281C207.343 54.0281 207.813 54.2738 207.813 54.765C207.813 55.1125 207.592 55.388 207.148 55.5917C205.588 56.2987 202.898 56.7481 199.079 56.9398C197.99 58.8569 197.445 60.5404 197.445 61.9902C197.445 62.6372 197.54 63.2364 197.728 63.7876C197.916 64.3268 198.01 64.7162 198.01 64.9558C198.01 65.5909 197.56 66.0222 196.659 66.2499C195.758 66.4656 194.433 66.5734 192.685 66.5734C190.95 66.5734 189.807 66.4356 189.256 66.1601C188.704 65.8725 188.429 65.3692 188.429 64.6503C188.429 63.3083 188.866 61.8285 189.74 60.2109C190.627 58.5933 191.757 57.0476 193.129 55.5738C194.5 54.088 196.02 52.6322 197.687 51.2063C199.355 49.7804 200.975 48.5522 202.549 47.5218C206.045 45.2092 208.425 44.0529 209.689 44.0529C210.268 44.0529 210.557 44.2087 210.557 44.5202C210.557 44.8318 210.274 45.1792 209.709 45.5627C208.513 46.3416 207.081 47.5278 205.413 49.1214C203.745 50.715 202.26 52.3865 200.955 54.1359H201.238Z" fill="#6230A5"/>
<path d="M6.65 60V26.15H0.55V19.5H21.7V26.15H15.65V60H6.65ZM33.5332 60.5C31.4332 60.5 29.6332 60.1333 28.1332 59.4C26.6332 58.6333 25.4832 57.5333 24.6832 56.1C23.8832 54.6333 23.4832 52.8833 23.4832 50.85V40.25C23.4832 38.1833 23.8832 36.4333 24.6832 35C25.4832 33.5667 26.6332 32.4833 28.1332 31.75C29.6665 30.9833 31.4665 30.6 33.5332 30.6C35.6665 30.6 37.4332 30.9667 38.8332 31.7C40.2665 32.4333 41.3332 33.5167 42.0332 34.95C42.7665 36.3833 43.1332 38.15 43.1332 40.25V46.05H31.5332V51.6C31.5332 52.3333 31.6165 52.9333 31.7832 53.4C31.9499 53.8667 32.1832 54.2 32.4832 54.4C32.7832 54.6 33.1332 54.7 33.5332 54.7C33.9332 54.7 34.2832 54.6167 34.5832 54.45C34.9165 54.25 35.1665 53.95 35.3332 53.55C35.5332 53.15 35.6332 52.6 35.6332 51.9V48.85H43.1332V51.65C43.1332 54.5833 42.2832 56.8 40.5832 58.3C38.8832 59.7667 36.5332 60.5 33.5332 60.5ZM31.5332 42.25H35.6332V39.35C35.6332 38.5833 35.5332 37.9833 35.3332 37.55C35.1665 37.1167 34.9165 36.8167 34.5832 36.65C34.2832 36.4833 33.9165 36.4 33.4832 36.4C33.0832 36.4 32.7332 36.5 32.4332 36.7C32.1665 36.9 31.9499 37.25 31.7832 37.75C31.6165 38.2167 31.5332 38.9 31.5332 39.8V42.25ZM47.5695 60V31.1H55.5695V33.4C56.6362 32.3667 57.7362 31.6333 58.8695 31.2C60.0362 30.7667 61.2195 30.55 62.4195 30.55C63.5862 30.55 64.5862 30.85 65.4195 31.45C66.2862 32.0167 66.9362 32.8667 67.3695 34C68.5029 32.7333 69.6862 31.85 70.9195 31.35C72.1862 30.8167 73.4529 30.55 74.7195 30.55C75.8529 30.55 76.8362 30.8333 77.6695 31.4C78.5029 31.9333 79.1529 32.7333 79.6195 33.8C80.0862 34.8333 80.3195 36.0833 80.3195 37.55V60H72.3195V38.4C72.3195 37.6 72.1695 37.0333 71.8695 36.7C71.6029 36.3333 71.1862 36.15 70.6195 36.15C70.2862 36.15 69.8695 36.25 69.3695 36.45C68.8695 36.6167 68.3862 36.8667 67.9195 37.2C67.9195 37.2667 67.9195 37.3333 67.9195 37.4C67.9195 37.4333 67.9195 37.4833 67.9195 37.55V60H60.0195V38.4C60.0195 37.6 59.8695 37.0333 59.5695 36.7C59.2695 36.3333 58.8362 36.15 58.2695 36.15C57.9029 36.15 57.4695 36.25 56.9695 36.45C56.5029 36.6167 56.0362 36.8667 55.5695 37.2V60H47.5695ZM83.616 60L92.216 19.5H97.666L106.316 60H100.966L99.116 49.8H90.866L88.916 60H83.616ZM91.616 45.75H98.366L94.966 27.5L91.616 45.75ZM121.375 69.5V58.15C120.742 58.8167 120.042 59.3667 119.275 59.8C118.542 60.2 117.692 60.4 116.725 60.4C114.292 60.4 112.475 59.5167 111.275 57.75C110.075 55.95 109.475 52.9167 109.475 48.65V43.05C109.475 40.85 109.659 38.8167 110.025 36.95C110.392 35.05 111.075 33.5333 112.075 32.4C113.109 31.2667 114.609 30.7 116.575 30.7C117.542 30.7 118.425 30.9167 119.225 31.35C120.025 31.7833 120.742 32.3167 121.375 32.95V31.1H126.725V69.5H121.375ZM118.075 56.2C118.575 56.2 119.109 56.1167 119.675 55.95C120.275 55.75 120.842 55.4667 121.375 55.1V36.15C120.909 35.8167 120.392 35.5333 119.825 35.3C119.259 35.0333 118.642 34.9 117.975 34.9C116.742 34.9 115.909 35.5 115.475 36.7C115.042 37.8667 114.825 39.2833 114.825 40.95V49.1C114.825 50.4333 114.892 51.65 115.025 52.75C115.192 53.8167 115.509 54.6667 115.975 55.3C116.442 55.9 117.142 56.2 118.075 56.2ZM136.293 60.4C135.16 60.4 134.277 60.1 133.643 59.5C133.01 58.9 132.56 58.15 132.293 57.25C132.06 56.35 131.943 55.4333 131.943 54.5V31.1H137.293V52.9C137.293 53.9333 137.443 54.75 137.743 55.35C138.043 55.9167 138.66 56.2 139.593 56.2C140.193 56.2 140.81 56.0333 141.443 55.7C142.11 55.3333 142.743 54.9 143.343 54.4V31.1H148.693V60H143.343V57.15C142.41 58.05 141.343 58.8167 140.143 59.45C138.977 60.0833 137.693 60.4 136.293 60.4ZM154.515 60V31.1H159.865V60H154.515ZM154.515 26.8V21.2H159.865V26.8H154.515Z" fill="white"/>
</svg>
